<?xml version="1.0" standalone="no"?>
<!DOCTYPE svg PUBLIC "-//W3C//DTD SVG 20010904//EN"
 "http://www.w3.org/TR/2001/REC-SVG-20010904/DTD/svg10.dtd">
<svg version="1.0" xmlns="http://www.w3.org/2000/svg"
 width="600.000000pt" height="600.000000pt" viewBox="0 0 600.000000 600.000000"
 preserveAspectRatio="xMidYMid meet">
<metadata>
Created by potrace 1.11, written by Peter Selinger 2001-2013
</metadata>
<g transform="translate(0.000000,600.000000) scale(0.100000,-0.100000)"
fill="#000000" stroke="none">
<path d="M1645 5464 c-748 -267 -1364 -489 -1369 -494 -9 -9 401 -3610 413
-3622 12 -12 2306 -1281 2317 -1281 8 0 2293 1258 2321 1278 3 2 412 3543 416
3595 l2 34 -215 77 c-676 242 -2488 887 -2505 892 -13 4 -529 -176 -1380 -479z
m1720 -1589 c280 -27 440 -63 632 -145 101 -44 125 -51 138 -40 8 7 15 19 15
26 0 19 8 17 54 -9 57 -32 79 -67 84 -134 3 -47 -1 -69 -22 -117 -14 -32 -26
-68 -25 -80 0 -14 4 -9 11 14 16 56 28 59 28 7 0 -67 20 -107 96 -194 71 -82
94 -124 94 -173 0 -45 -26 -89 -58 -97 -46 -11 -350 15 -432 38 -41 11 -175
63 -296 115 -123 52 -266 106 -320 120 -182 46 -513 44 -691 -6 -38 -10 -170
-61 -294 -113 -321 -135 -343 -141 -584 -153 -123 -6 -131 -5 -157 15 -31 25
-44 73 -34 126 4 22 31 64 69 111 96 117 107 138 107 217 0 39 4 67 10 67 6 0
3 14 -6 32 -41 79 -6 167 83 212 41 21 50 20 56 -4 7 -28 27 -25 105 14 177
89 416 143 702 159 167 10 492 5 635 -8z m-2345 -40 c0 -63 47 -132 115 -168
45 -24 146 -28 325 -13 85 7 101 6 152 -13 94 -36 161 -140 155 -239 -2 -29
-6 -54 -8 -56 -3 -3 -23 1 -45 9 -48 16 -78 11 -214 -38 -111 -41 -231 -61
-303 -52 -138 16 -211 45 -251 98 -98 128 -91 313 15 446 45 57 59 63 59 26z
m701 -505 c19 -15 21 -21 11 -28 -8 -5 -13 -12 -13 -16 3 -20 -3 -23 -45 -22
-41 1 -50 -3 -78 -35 -17 -21 -56 -81 -86 -135 -98 -179 -171 -232 -330 -242
l-85 -5 21 24 c32 36 40 56 58 143 19 94 44 153 79 185 27 25 368 147 418 150
15 0 37 -8 50 -19z"/>
<path d="M2443 3749 c-102 -19 -189 -94 -249 -216 -85 -173 -45 -314 101 -352
46 -12 132 3 228 39 69 26 91 47 125 120 34 73 43 213 17 288 -31 95 -116 142
-222 121z"/>
<path d="M3507 3746 c-90 -33 -126 -100 -127 -228 0 -100 24 -190 64 -243 23
-30 42 -40 142 -71 130 -41 169 -41 241 1 125 74 106 283 -40 441 -85 92 -196
131 -280 100z"/>
<path d="M2915 3399 c-38 -5 -81 -14 -95 -19 -22 -9 -21 -10 10 -5 134 22 321
13 409 -19 72 -26 75 -27 39 -6 -80 44 -238 65 -363 49z"/>
<path d="M1370 3495 l-65 -14 73 6 c204 15 295 1 356 -55 30 -27 30 -27 15 -2
-9 14 -38 36 -65 50 -41 21 -64 25 -149 27 -55 1 -129 -5 -165 -12z"/>
<path d="M1243 3473 c9 -2 25 -2 35 0 9 3 1 5 -18 5 -19 0 -27 -2 -17 -5z"/>
<path d="M1535 3286 c-63 -31 -104 -68 -191 -176 -84 -104 -39 -69 70 53 80
90 127 122 199 137 l42 8 -35 1 c-19 0 -57 -10 -85 -23z"/>
<path d="M1678 3303 c6 -2 18 -2 25 0 6 3 1 5 -13 5 -14 0 -19 -2 -12 -5z"/>
</g>
</svg>
